<svg width="23" height="21" viewBox="0 0 23 21" fill="none" xmlns="http://www.w3.org/2000/svg">
<path d="M10.1999 20.2859C10.2689 20.3491 10.3497 20.398 10.4377 20.4299C10.5256 20.4618 10.619 20.4761 10.7125 20.4719C10.806 20.4678 10.8977 20.4452 10.9824 20.4056C11.0672 20.366 11.1433 20.3101 11.2065 20.241C11.334 20.1016 11.4009 19.9172 11.3925 19.7285C11.3883 19.635 11.3658 19.5432 11.3262 19.4585C11.2866 19.3737 11.2306 19.2976 11.1616 19.2345L2.37377 11.2117L22.0794 11.2117C22.2684 11.2117 22.4496 11.1367 22.5832 11.0031C22.7167 10.8695 22.7918 10.6883 22.7918 10.4993C22.7918 10.3104 22.7167 10.1292 22.5832 9.99562C22.4496 9.86202 22.2684 9.78697 22.0794 9.78697L2.37804 9.78697L11.1616 1.7685C11.2307 1.70545 11.2868 1.62939 11.3265 1.54468C11.3663 1.45998 11.3889 1.36827 11.3932 1.2748C11.3975 1.18133 11.3834 1.08793 11.3516 0.999927C11.3198 0.911928 11.271 0.83105 11.2079 0.761917C11.1449 0.692783 11.0688 0.636745 10.9841 0.597003C10.8994 0.55726 10.8077 0.534593 10.7142 0.530294C10.6207 0.525995 10.5273 0.540147 10.4393 0.571945C10.3513 0.603742 10.2705 0.652561 10.2013 0.715612L0.34778 9.71146C0.224277 9.8243 0.128994 9.96457 0.0696033 10.121C0.0102123 10.2774 -0.0116276 10.4455 0.00584153 10.6119C0.0329257 10.8722 0.154597 11.1135 0.34778 11.2901L10.1999 20.2859Z" fill="#3B3D41"/>
</svg>
