<svg width="18" height="18" viewBox="0 0 18 18" fill="none" xmlns="http://www.w3.org/2000/svg">
<path d="M2.81806 1.23539C2.72459 1.23956 2.63286 1.26209 2.5481 1.30171C2.46334 1.34133 2.38721 1.39726 2.32407 1.4663C2.26092 1.53534 2.21199 1.61614 2.18007 1.70409C2.14815 1.79204 2.13387 1.88542 2.13804 1.97889C2.14645 2.16766 2.22951 2.34535 2.36895 2.47288C2.43799 2.53603 2.51879 2.58496 2.60674 2.61688C2.69469 2.6488 2.78806 2.66308 2.88153 2.65891L14.7684 2.11791L0.834398 16.0519C0.700803 16.1855 0.625749 16.3667 0.625749 16.5556C0.62575 16.7446 0.700802 16.9258 0.834398 17.0594C0.967994 17.193 1.14919 17.268 1.33812 17.268C1.52706 17.268 1.70825 17.193 1.84185 17.0594L15.7728 3.12838L15.2318 15.0092C15.2275 15.1027 15.2417 15.1961 15.2735 15.2841C15.3053 15.3721 15.3541 15.453 15.4171 15.5221C15.4802 15.5912 15.5562 15.6473 15.641 15.687C15.7257 15.7267 15.8174 15.7494 15.9108 15.7537C16.0043 15.758 16.0977 15.7439 16.1857 15.7121C16.2737 15.6803 16.3546 15.6314 16.4237 15.5684C16.4929 15.5053 16.5489 15.4293 16.5886 15.3446C16.6284 15.2599 16.6511 15.1682 16.6554 15.0747L17.2618 1.74617C17.2694 1.57904 17.2376 1.41248 17.169 1.2599C17.1004 1.10731 16.9969 0.972968 16.8669 0.867673C16.6637 0.70276 16.407 0.618158 16.1456 0.629914L2.81806 1.23539Z" fill="#567D72"/>
</svg>
