<svg width="18" height="18" viewBox="0 0 18 18" fill="none" xmlns="http://www.w3.org/2000/svg">
<path d="M3.03584 1.23509C2.94237 1.23925 2.85063 1.26179 2.76587 1.30141C2.68111 1.34103 2.60499 1.39695 2.54184 1.46599C2.47869 1.53504 2.42976 1.61584 2.39784 1.70379C2.36593 1.79174 2.35164 1.88511 2.35581 1.97858C2.36423 2.16735 2.44729 2.34505 2.58672 2.47258C2.65576 2.53572 2.73656 2.58465 2.82451 2.61657C2.91246 2.64849 3.00584 2.66278 3.09931 2.65861L14.9862 2.11761L1.05217 16.0516C0.918577 16.1852 0.843523 16.3664 0.843523 16.5553C0.843523 16.7443 0.918576 16.9255 1.05217 17.0591C1.18577 17.1927 1.36696 17.2677 1.55589 17.2677C1.74483 17.2677 1.92602 17.1927 2.05962 17.0591L15.9906 3.12808L15.4496 15.0089C15.4453 15.1024 15.4595 15.1958 15.4913 15.2838C15.523 15.3718 15.5719 15.4527 15.6349 15.5218C15.698 15.5909 15.774 15.647 15.8587 15.6867C15.9434 15.7264 16.0352 15.7491 16.1286 15.7534C16.2221 15.7577 16.3155 15.7436 16.4035 15.7118C16.4915 15.68 16.5724 15.6311 16.6415 15.5681C16.7106 15.505 16.7667 15.429 16.8064 15.3443C16.8462 15.2596 16.8688 15.1679 16.8731 15.0744L17.4796 1.74586C17.4871 1.57874 17.4553 1.41218 17.3867 1.25959C17.3182 1.10701 17.2147 0.972663 17.0847 0.867368C16.8815 0.702455 16.6248 0.617853 16.3634 0.629609L3.03584 1.23509Z" fill="white"/>
</svg>
