<svg width="46" height="19" viewBox="0 0 46 19" fill="none" xmlns="http://www.w3.org/2000/svg">
<path d="M23 0H12.5455L6.27273 5H4.18182C1.86091 5 0 6.78 0 9V15H4.53727C5.43636 17.4 7.79909 19 10.4545 19C13.11 19 15.4727 17.4 16.3509 15H29.6282C30.5273 17.4 32.89 19 35.5455 19C38.2009 19 40.5636 17.4 41.4418 15H46V13C46 10.78 43.8464 10.06 41.8182 9L23 0ZM8.88636 7L13.5909 3H21.9545L30.3182 7H8.88636ZM10.4545 10C11.2864 10 12.0841 10.3161 12.6723 10.8787C13.2605 11.4413 13.5909 12.2044 13.5909 13C13.5909 13.7956 13.2605 14.5587 12.6723 15.1213C12.0841 15.6839 11.2864 16 10.4545 16C9.62273 16 8.82498 15.6839 8.2368 15.1213C7.64862 14.5587 7.31818 13.7956 7.31818 13C7.31818 12.2044 7.64862 11.4413 8.2368 10.8787C8.82498 10.3161 9.62273 10 10.4545 10ZM35.5455 10C36.3773 10 37.175 10.3161 37.7632 10.8787C38.3514 11.4413 38.6818 12.2044 38.6818 13C38.6818 13.7956 38.3514 14.5587 37.7632 15.1213C37.175 15.6839 36.3773 16 35.5455 16C34.7136 16 33.9159 15.6839 33.3277 15.1213C32.7395 14.5587 32.4091 13.7956 32.4091 13C32.4091 12.2044 32.7395 11.4413 33.3277 10.8787C33.9159 10.3161 34.7136 10 35.5455 10Z" fill="#CFA859"/>
</svg>
