<svg width="26" height="43" viewBox="0 0 26 43" fill="none" xmlns="http://www.w3.org/2000/svg">
<path d="M14.875 8.54167C16.9833 8.54167 18.7083 6.81667 18.7083 4.70833C18.7083 2.6 16.9833 0.875 14.875 0.875C12.7667 0.875 11.0417 2.6 11.0417 4.70833C11.0417 6.81667 12.7667 8.54167 14.875 8.54167ZM7.78333 15.0583L2.41667 42.0833H6.44167L9.89167 26.75L13.9167 30.5833V42.0833H17.75V27.7083L13.725 23.875L14.875 18.125C17.3667 21 21.2 22.9167 25.4167 22.9167V19.0833C21.775 19.0833 18.7083 17.1667 17.175 14.4833L15.2583 11.4167C14.7407 10.589 13.9455 9.97248 13.0149 9.6775C12.0843 9.38252 11.0791 9.4283 10.1792 9.80667L0.5 13.9083V22.9167H4.33333V16.4L7.78333 15.0583Z" fill="#CFA859"/>
</svg>
