<svg width="28" height="30" viewBox="0 0 28 30" fill="none" xmlns="http://www.w3.org/2000/svg">
<path fill-rule="evenodd" clip-rule="evenodd" d="M14.0002 6.6667C13.6736 6.66666 13.3584 6.54676 13.1143 6.32975C12.8703 6.11274 12.7144 5.81371 12.6762 5.48937L12.6668 5.33337L12.6668 4.00004C12.6672 3.6602 12.7973 3.33333 13.0306 3.08621C13.2639 2.8391 13.5828 2.69039 13.922 2.67048C14.2613 2.65056 14.5953 2.76094 14.8559 2.97906C15.1165 3.19718 15.284 3.50658 15.3242 3.84404L15.3335 4.00004L15.3335 5.33337C15.3335 5.68699 15.193 6.02613 14.943 6.27618C14.6929 6.52623 14.3538 6.6667 14.0002 6.6667ZM20.6002 9.40004C20.3502 9.15 20.2098 8.81093 20.2098 8.45737C20.2098 8.10382 20.3502 7.76474 20.6002 7.51471L21.5428 6.57204C21.6658 6.44469 21.813 6.34312 21.9756 6.27324C22.1383 6.20336 22.3133 6.16658 22.4903 6.16504C22.6673 6.1635 22.8429 6.19724 23.0068 6.26428C23.1706 6.33132 23.3195 6.43032 23.4447 6.55551C23.5699 6.6807 23.6689 6.82957 23.7359 6.99343C23.803 7.1573 23.8367 7.33287 23.8352 7.50991C23.8336 7.68695 23.7968 7.86191 23.727 8.02458C23.6571 8.18725 23.5555 8.33438 23.4282 8.45737L22.4855 9.40004C22.2355 9.65 21.8964 9.79042 21.5428 9.79042C21.1893 9.79042 20.8502 9.65 20.6002 9.40004ZM5.51483 9.40004L4.57217 8.45737C4.32929 8.2059 4.1949 7.8691 4.19794 7.5195C4.20097 7.16991 4.3412 6.83549 4.58841 6.58828C4.83562 6.34107 5.17004 6.20085 5.51963 6.19781C5.86923 6.19477 6.20603 6.32916 6.4575 6.57204L7.40017 7.5147C7.64304 7.76617 7.77744 8.10298 7.7744 8.45257C7.77136 8.80217 7.63114 9.13659 7.38392 9.3838C7.13671 9.63101 6.8023 9.77123 6.4527 9.77427C6.10311 9.77731 5.7663 9.64291 5.51483 9.40004ZM13.1775 29.3334C12.5274 29.3335 11.8997 29.0962 11.4123 28.666C10.9249 28.2358 10.6114 27.6424 10.5308 26.9974L10.0242 22.944C8.49394 22.0676 7.29617 20.7101 6.6171 19.0827C5.93803 17.4552 5.81572 15.649 6.26919 13.9449C6.72265 12.2407 7.72648 10.7342 9.12458 9.65942C10.5227 8.5847 12.2367 8.00204 14.0002 8.00204C15.7636 8.00204 17.4776 8.5847 18.8757 9.65942C20.2739 10.7342 21.2777 12.2407 21.7311 13.9449C22.1846 15.649 22.0623 17.4552 21.3832 19.0827C20.7042 20.7101 19.5064 22.0676 17.9762 22.944L17.4695 26.9974C17.3889 27.6424 17.0754 28.2358 16.588 28.666C16.1006 29.0962 15.4729 29.3335 14.8228 29.3334L13.1775 29.3334ZM14.0002 21.3334C15.4147 21.3334 16.7712 20.7715 17.7714 19.7713C18.7716 18.7711 19.3335 17.4145 19.3335 16C19.3335 14.5856 18.7716 13.229 17.7714 12.2288C16.7712 11.2286 15.4147 10.6667 14.0002 10.6667C12.5857 10.6667 11.2291 11.2286 10.2289 12.2288C9.22873 13.229 8.66683 14.5856 8.66683 16C8.66683 17.4145 9.22873 18.7711 10.2289 19.7713C11.2291 20.7715 12.5857 21.3334 14.0002 21.3334ZM24.6668 17.3334C24.3132 17.3334 23.9741 17.1929 23.724 16.9428C23.474 16.6928 23.3335 16.3537 23.3335 16C23.3335 15.6464 23.474 15.3073 23.724 15.0572C23.9741 14.8072 24.3132 14.6667 24.6668 14.6667L26.0002 14.6667C26.3538 14.6667 26.6929 14.8072 26.943 15.0572C27.193 15.3073 27.3335 15.6464 27.3335 16C27.3335 16.3537 27.193 16.6928 26.943 16.9428C26.6929 17.1929 26.3538 17.3334 26.0002 17.3334L24.6668 17.3334ZM2.00017 17.3334C1.64654 17.3334 1.3074 17.1929 1.05736 16.9428C0.807307 16.6928 0.666833 16.3537 0.666833 16C0.666833 15.6464 0.807308 15.3073 1.05736 15.0572C1.3074 14.8072 1.64654 14.6667 2.00017 14.6667L3.3335 14.6667C3.68712 14.6667 4.02626 14.8072 4.27631 15.0572C4.52636 15.3073 4.66683 15.6464 4.66683 16C4.66683 16.3537 4.52636 16.6928 4.27631 16.9428C4.02626 17.1929 3.68712 17.3334 3.3335 17.3334L2.00017 17.3334ZM4.57216 25.4267C4.3222 25.1767 4.18178 24.8376 4.18178 24.484C4.18178 24.1305 4.32221 23.7914 4.57217 23.5414L5.51483 22.5987C5.63783 22.4714 5.78495 22.3698 5.94763 22.2999C6.1103 22.23 6.28526 22.1932 6.4623 22.1917C6.63934 22.1902 6.81491 22.2239 6.97877 22.2909C7.14263 22.358 7.2915 22.457 7.41669 22.5822C7.54188 22.7074 7.64088 22.8562 7.70793 23.0201C7.77497 23.184 7.8087 23.3595 7.80717 23.5366C7.80563 23.7136 7.76885 23.8886 7.69897 24.0512C7.62909 24.2139 7.52751 24.361 7.40016 24.484L6.4575 25.4267C6.20746 25.6767 5.86838 25.8171 5.51483 25.8171C5.16128 25.8171 4.8222 25.6767 4.57216 25.4267ZM21.5428 25.4267L20.6002 24.484C20.3633 24.2314 20.234 23.8966 20.2396 23.5503C20.2452 23.2041 20.3853 22.8736 20.6303 22.6289C20.8752 22.3841 21.2058 22.2442 21.5521 22.2388C21.8983 22.2334 22.2331 22.363 22.4855 22.6L23.4282 23.5427C23.665 23.7953 23.7943 24.1302 23.7887 24.4764C23.7831 24.8226 23.643 25.1531 23.398 25.3979C23.1531 25.6427 22.8225 25.7825 22.4763 25.7879C22.13 25.7933 21.7953 25.6638 21.5428 25.4267ZM13.1775 26.6667L14.8228 26.6667L15.1562 24L12.8442 24L13.1775 26.6667Z" fill="#CFA859"/>
</svg>
