<svg width="232" height="48" viewBox="0 0 232 48" fill="none" xmlns="http://www.w3.org/2000/svg">
<path d="M41.864 24.0573C41.864 20.3244 41.3156 17.1072 40.2189 14.3976C39.1222 11.6879 37.7308 9.44492 36.0366 7.67671C34.3424 5.90849 32.4845 4.5905 30.4711 3.72276C28.4495 2.85503 26.518 2.42936 24.6764 2.42936C22.8676 2.42936 20.9606 2.86321 18.9391 3.72276C16.9175 4.5905 15.0678 5.9003 13.3736 7.67671C11.6794 9.44492 10.288 11.6879 9.19126 14.3976C8.09453 17.1072 7.54616 20.3325 7.54616 24.0573C7.54616 27.7492 8.09453 30.95 9.19126 33.6597C10.288 36.3693 11.6794 38.6123 13.3736 40.3805C15.0678 42.1569 16.9257 43.4585 18.9391 44.3017C20.9606 45.1449 22.8676 45.5706 24.6764 45.5706C26.518 45.5706 28.4495 45.1449 30.4711 44.3017C32.4927 43.4585 34.3342 42.1487 36.0039 40.3805C37.6735 38.6123 39.0731 36.3693 40.1862 33.6597C41.3074 30.95 41.864 27.7492 41.864 24.0573ZM7.20241 40.5525C4.93529 38.3995 3.16742 35.9191 1.89882 33.1112C1.24405 31.6868 0.769352 30.2215 0.458339 28.6988C0.147326 27.1762 0 25.629 0 24.0573C0 20.8237 0.63021 17.7703 1.89882 14.8887C2.55358 13.5053 3.32293 12.1873 4.20686 10.9348C5.09079 9.68231 6.08931 8.54445 7.20241 7.5048C8.31551 6.39148 9.535 5.41731 10.8691 4.59869C12.195 3.77189 13.5864 3.05151 15.0514 2.43755C16.5901 1.85633 18.1452 1.40609 19.7248 1.07864C21.3044 0.751192 22.9331 0.587463 24.6273 0.587463C26.3215 0.587463 27.9503 0.751192 29.5299 1.07864C31.1013 1.40609 32.6646 1.85633 34.2033 2.43755C35.6683 3.05151 37.0597 3.77189 38.3856 4.59869C39.7115 5.4255 40.931 6.39148 42.0522 7.5048C44.3603 9.65777 46.1281 12.1218 47.3558 14.8887C48.6654 17.7375 49.3201 20.791 49.3201 24.0573C49.3201 25.629 49.1564 27.1762 48.829 28.6988C48.5017 30.2133 48.0106 31.6868 47.3558 33.1112C46.742 34.5356 45.9808 35.8618 45.0805 37.0897C44.172 38.3176 43.1653 39.4719 42.0522 40.5525C39.8179 42.7054 37.207 44.3836 34.2033 45.5706C31.0931 46.7985 27.9011 47.4125 24.6273 47.4125C21.3617 47.4125 18.1697 46.7985 15.0596 45.5706C12.0477 44.3754 9.42861 42.7054 7.20241 40.5525Z" fill="#567D72"/>
<path d="M58.6992 47.0687V1.03772H66.0817V45.2186H94.5148V47.0687H58.6992Z" fill="#567D72"/>
<path d="M111.065 0.923096H103.683V47.0113H111.065V0.923096Z" fill="#567D72"/>
<path d="M164.412 1.03772L142.265 47.0687H139.957L117.817 1.03772H125.658L143.877 38.9398L162.104 1.03772H164.412Z" fill="#567D72"/>
<path d="M178.71 0.923096H171.327V47.0113H178.71V0.923096Z" fill="#567D72"/>
<path d="M194.571 32.7018H217.292L205.932 9.10923L194.571 32.7018ZM231.999 47.0686H224.159L218.159 34.5519H193.704L187.705 47.0686H185.396L207.544 0.980347H209.852L231.999 47.0686Z" fill="#567D72"/>
</svg>
